<?xml version="1.0" standalone="no"?>
<!DOCTYPE svg PUBLIC "-//W3C//DTD SVG 20010904//EN"
 "http://www.w3.org/TR/2001/REC-SVG-20010904/DTD/svg10.dtd">
<svg version="1.0" xmlns="http://www.w3.org/2000/svg"
 width="1024.000000pt" height="1024.000000pt" viewBox="0 0 1024.000000 1024.000000"
 preserveAspectRatio="xMidYMid meet">

<g transform="translate(0.000000,1024.000000) scale(0.100000,-0.100000)"
fill="#000000" stroke="none">
<path d="M0 5120 l0 -5120 4720 0 4720 0 0 80 0 80 320 0 320 0 0 -80 0 -80
80 0 80 0 0 5120 0 5120 -5120 0 -5120 0 0 -5120z m8456 3230 l744 0 -51 -72
c-29 -40 -58 -80 -65 -88 -37 -41 -108 -131 -143 -180 -21 -30 -72 -96 -112
-147 -41 -50 -85 -109 -99 -129 -14 -21 -43 -56 -66 -78 -23 -23 -56 -63 -74
-91 -18 -27 -68 -92 -109 -144 -85 -104 -220 -276 -313 -396 -85 -111 -166
-213 -208 -261 -19 -23 -46 -58 -60 -79 -14 -20 -56 -71 -94 -113 -37 -43 -80
-95 -94 -117 -14 -22 -89 -116 -167 -210 -78 -93 -149 -183 -158 -200 -9 -16
-28 -43 -42 -60 l-25 -30 -77 28 c-43 16 -112 39 -153 52 -121 38 -259 90
-270 101 -10 10 14 96 66 232 14 35 27 85 30 110 4 26 17 70 30 97 44 94 43
97 -23 136 -137 82 -395 196 -548 244 -246 75 -312 94 -375 105 -36 6 -92 17
-125 25 -94 22 -364 45 -529 45 -152 0 -404 -20 -506 -41 -196 -40 -451 -127
-565 -193 -26 -16 -82 -63 -125 -106 -64 -65 -83 -92 -113 -162 -49 -113 -63
-205 -49 -306 13 -90 53 -195 104 -272 56 -84 193 -212 268 -251 36 -18 86
-47 113 -65 26 -18 73 -42 105 -54 31 -12 61 -25 67 -30 22 -18 217 -83 360
-120 83 -21 206 -54 275 -73 69 -20 177 -49 240 -66 63 -17 189 -51 280 -75
91 -25 228 -60 305 -79 146 -36 213 -57 580 -181 347 -118 625 -230 705 -286
14 -10 70 -40 126 -68 56 -28 136 -79 179 -113 43 -34 94 -73 114 -86 85 -56
297 -284 378 -403 77 -115 173 -341 205 -485 29 -129 36 -448 14 -600 -37
-256 -157 -564 -290 -750 -163 -227 -341 -398 -531 -510 -157 -93 -318 -169
-499 -235 -33 -11 -71 -28 -85 -36 -26 -14 -290 -91 -406 -119 -246 -57 -605
-95 -905 -95 -310 0 -539 20 -827 74 l-123 22 0 -41 c0 -23 -5 -46 -12 -53 -9
-9 -366 -12 -1545 -12 -843 0 -1533 3 -1533 6 0 3 28 43 63 87 34 45 71 96 81
112 10 17 45 64 78 105 76 96 319 425 377 510 24 36 72 99 106 140 34 41 85
111 114 155 29 44 63 91 76 105 12 14 35 45 51 70 15 25 47 68 69 95 44 54
222 296 293 398 23 34 75 104 115 155 40 52 99 129 132 172 33 43 92 123 130
178 39 56 80 106 92 113 18 9 44 7 140 -16 65 -15 161 -40 213 -56 111 -34
238 -66 330 -83 75 -14 73 -6 26 -126 -102 -259 -157 -412 -171 -478 -6 -29
-4 -34 17 -39 22 -6 79 -35 198 -100 30 -16 96 -44 145 -62 50 -18 130 -49
180 -69 81 -32 159 -55 285 -83 25 -6 74 -17 110 -25 36 -8 175 -26 310 -40
212 -22 276 -25 475 -21 485 11 790 84 1034 248 123 84 218 214 250 344 17 68
16 217 -2 257 -61 137 -81 172 -127 224 -74 83 -192 165 -351 244 -167 84
-226 108 -354 144 -55 16 -145 42 -200 58 -55 17 -122 36 -150 43 -27 8 -129
34 -225 58 -214 55 -354 93 -400 108 -19 6 -71 19 -115 29 -121 28 -453 107
-515 124 -226 58 -366 98 -416 119 -33 14 -104 39 -159 56 -100 31 -450 196
-528 249 -213 144 -349 265 -471 417 -107 134 -128 168 -216 347 -132 269
-173 479 -165 848 4 195 31 380 75 520 41 128 160 377 215 450 19 25 61 83 94
130 140 202 438 427 729 551 50 22 120 52 155 68 169 79 464 151 882 215 207
32 760 45 1070 26 171 -11 416 -41 530 -64 39 -9 129 -27 202 -41 226 -43 335
-74 603 -170 199 -72 244 -89 283 -111 26 -14 27 -14 36 8 16 43 114 313 129
357 l15 44 60 -7 c33 -3 395 -6 803 -6z"/>
</g>
</svg>
